# xmcd CD database file
#
# Track frame offsets:
#	150
#	28390
#	52775
#	79715
#	104787
#	122595
#	143857
#	173820
#	210325
#	247955
#	252722
#	266142
#	283020
#
# Disc length: 3920 seconds
#
# Revision: 0
# Processed by: cddbd v1.4PL0 Copyright (c) Steve Scherf et al.
# Submitted via: CDex 1.50Beta7
#
DISCID=c00f4e0d
DTITLE=Malachi Thompson - Freebop Now! The 20th Anniversary of The Freebop Band
DYEAR=1998
DGENRE=Jazz
TTITLE0=Black Nile
TTITLE1=Goree Island
TTITLE2=Flight To Senegal
TTITLE3=Freebop Now!
TTITLE4=Just A Look
TTITLE5=Round Midnight
TTITLE6=Cancerian Moon
TTITLE7=Jammin' At The Point
TTITLE8=Worm Hole
TTITLE9=Ancient African Horns
TTITLE10=Black Hole
TTITLE11=Heathens And Space/Time Projection
TTITLE12=Jammin' At The Point (Reprise)
EXTD=YEAR: 1998
EXTT0=
EXTT1=
EXTT2=
EXTT3=
EXTT4=
EXTT5=
EXTT6=
EXTT7=
EXTT8=
EXTT9=
EXTT10=
EXTT11=
EXTT12=
PLAYORDER=
